<svg width="20" height="20" viewBox="0 0 20 20" fill="none" xmlns="http://www.w3.org/2000/svg">
<path d="M12.125 10.1832C12.5696 9.79828 12.9263 9.32224 13.1707 8.78736C13.4152 8.25247 13.5417 7.67126 13.5417 7.08317C13.5417 5.9781 13.1027 4.91829 12.3213 4.13689C11.5399 3.35549 10.4801 2.9165 9.375 2.9165C8.26993 2.9165 7.21012 3.35549 6.42872 4.13689C5.64732 4.91829 5.20833 5.9781 5.20833 7.08317C5.21348 7.67449 5.34647 8.2577 5.5982 8.79279C5.84992 9.32788 6.21441 9.80219 6.66667 10.1832C5.50012 10.7114 4.51039 11.5644 3.81582 12.6403C3.12125 13.7161 2.75123 14.9693 2.75 16.2498C2.75 16.4709 2.8378 16.6828 2.99408 16.8391C3.15036 16.9954 3.36232 17.0832 3.58333 17.0832C3.80435 17.0832 4.01631 16.9954 4.17259 16.8391C4.32887 16.6828 4.41667 16.4709 4.41667 16.2498C4.41667 14.9238 4.94345 13.652 5.88113 12.7143C6.81881 11.7766 8.09058 11.2498 9.41667 11.2498C10.7427 11.2498 12.0145 11.7766 12.9522 12.7143C13.8899 13.652 14.4167 14.9238 14.4167 16.2498C14.4167 16.4709 14.5045 16.6828 14.6607 16.8391C14.817 16.9954 15.029 17.0832 15.25 17.0832C15.471 17.0832 15.683 16.9954 15.8393 16.8391C15.9955 16.6828 16.0833 16.4709 16.0833 16.2498C16.0785 14.9647 15.7023 13.7083 15 12.632C14.2977 11.5557 13.2993 10.7053 12.125 10.1832V10.1832ZM9.375 9.58317C8.88055 9.58317 8.3972 9.43655 7.98607 9.16184C7.57495 8.88714 7.25452 8.49669 7.0653 8.03988C6.87608 7.58306 6.82657 7.0804 6.92304 6.59545C7.0195 6.11049 7.2576 5.66504 7.60723 5.3154C7.95686 4.96577 8.40232 4.72767 8.88727 4.63121C9.37223 4.53474 9.87489 4.58425 10.3317 4.77347C10.7885 4.96269 11.179 5.28312 11.4537 5.69424C11.7284 6.10537 11.875 6.58872 11.875 7.08317C11.875 7.74621 11.6116 8.3821 11.1428 8.85094C10.6739 9.31978 10.038 9.58317 9.375 9.58317ZM16.4583 5.4165C16.2373 5.4165 16.0254 5.5043 15.8691 5.66058C15.7128 5.81686 15.625 6.02882 15.625 6.24984V7.9165C15.625 8.13752 15.7128 8.34948 15.8691 8.50576C16.0254 8.66204 16.2373 8.74984 16.4583 8.74984C16.6793 8.74984 16.8913 8.66204 17.0476 8.50576C17.2039 8.34948 17.2917 8.13752 17.2917 7.9165V6.24984C17.2917 6.02882 17.2039 5.81686 17.0476 5.66058C16.8913 5.5043 16.6793 5.4165 16.4583 5.4165ZM15.8333 9.82484C15.6811 9.98453 15.5947 10.1959 15.5917 10.4165C15.591 10.5262 15.6121 10.6349 15.6535 10.7364C15.695 10.838 15.7561 10.9303 15.8333 11.0082C15.9143 11.0818 16.0073 11.141 16.1083 11.1832C16.2081 11.2273 16.3159 11.25 16.425 11.25C16.5341 11.25 16.6419 11.2273 16.7417 11.1832C16.8451 11.1457 16.939 11.086 17.0168 11.0083C17.0945 10.9305 17.1542 10.8366 17.1917 10.7332C17.2383 10.6343 17.2611 10.5258 17.2583 10.4165C17.2593 10.251 17.2109 10.0889 17.1194 9.95099C17.0279 9.81306 16.8974 9.7055 16.7446 9.64203C16.5917 9.57856 16.4234 9.56205 16.2611 9.5946C16.0988 9.62716 15.9499 9.70731 15.8333 9.82484Z" fill="#FF5252"/>
</svg>
