<svg width="18" height="18" viewBox="0 0 18 18" fill="none" xmlns="http://www.w3.org/2000/svg">
<path d="M11.7825 9.53272C12.5178 8.95421 13.0545 8.16091 13.3179 7.26317C13.5814 6.36544 13.5584 5.40791 13.2523 4.52382C12.9462 3.63972 12.3722 2.87301 11.6101 2.33036C10.8479 1.7877 9.93559 1.49609 9 1.49609C8.06441 1.49609 7.15208 1.7877 6.38995 2.33036C5.62781 2.87301 5.05376 3.63972 4.74766 4.52382C4.44156 5.40791 4.41863 6.36544 4.68207 7.26317C4.9455 8.16091 5.4822 8.95421 6.2175 9.53272C4.95756 10.0375 3.85821 10.8747 3.03667 11.9552C2.21512 13.0356 1.70217 14.3187 1.5525 15.6677C1.54166 15.7662 1.55033 15.8659 1.57802 15.961C1.6057 16.0561 1.65185 16.1449 1.71383 16.2222C1.83901 16.3783 2.02109 16.4783 2.22 16.5002C2.41891 16.5221 2.61837 16.4641 2.77449 16.3389C2.93062 16.2137 3.03062 16.0316 3.0525 15.8327C3.21719 14.3666 3.91626 13.0126 5.01616 12.0293C6.11606 11.046 7.53967 10.5025 9.015 10.5025C10.4903 10.5025 11.9139 11.046 13.0138 12.0293C14.1137 13.0126 14.8128 14.3666 14.9775 15.8327C14.9979 16.017 15.0858 16.1872 15.2243 16.3105C15.3628 16.4337 15.5421 16.5013 15.7275 16.5002H15.81C16.0066 16.4776 16.1863 16.3782 16.3099 16.2237C16.4335 16.0691 16.4911 15.872 16.47 15.6752C16.3196 14.3224 15.8039 13.036 14.9781 11.9539C14.1524 10.8718 13.0477 10.0348 11.7825 9.53272ZM9 9.00022C8.40665 9.00022 7.82663 8.82427 7.33329 8.49462C6.83994 8.16498 6.45542 7.69644 6.22836 7.14827C6.0013 6.60009 5.94189 5.99689 6.05764 5.41494C6.1734 4.833 6.45912 4.29845 6.87868 3.8789C7.29823 3.45934 7.83278 3.17362 8.41473 3.05786C8.99667 2.9421 9.59987 3.00151 10.148 3.22858C10.6962 3.45564 11.1648 3.84016 11.4944 4.3335C11.8241 4.82685 12 5.40687 12 6.00022C12 6.79587 11.6839 7.55893 11.1213 8.12154C10.5587 8.68415 9.79565 9.00022 9 9.00022Z" fill="white"/>
</svg>
