<svg width="20" height="20" viewBox="0 0 20 20" fill="none" xmlns="http://www.w3.org/2000/svg">
<path d="M17.5001 8.74984H16.6667V7.9165C16.6667 7.69549 16.579 7.48353 16.4227 7.32725C16.2664 7.17097 16.0544 7.08317 15.8334 7.08317C15.6124 7.08317 15.4004 7.17097 15.2442 7.32725C15.0879 7.48353 15.0001 7.69549 15.0001 7.9165V8.74984H14.1667C13.9457 8.74984 13.7338 8.83764 13.5775 8.99392C13.4212 9.1502 13.3334 9.36216 13.3334 9.58317C13.3334 9.80418 13.4212 10.0161 13.5775 10.1724C13.7338 10.3287 13.9457 10.4165 14.1667 10.4165H15.0001V11.2498C15.0001 11.4709 15.0879 11.6828 15.2442 11.8391C15.4004 11.9954 15.6124 12.0832 15.8334 12.0832C16.0544 12.0832 16.2664 11.9954 16.4227 11.8391C16.579 11.6828 16.6667 11.4709 16.6667 11.2498V10.4165H17.5001C17.7211 10.4165 17.9331 10.3287 18.0893 10.1724C18.2456 10.0161 18.3334 9.80418 18.3334 9.58317C18.3334 9.36216 18.2456 9.1502 18.0893 8.99392C17.9331 8.83764 17.7211 8.74984 17.5001 8.74984ZM11.0834 10.1832C11.5281 9.79828 11.8847 9.32224 12.1291 8.78736C12.3736 8.25247 12.5001 7.67126 12.5001 7.08317C12.5001 5.9781 12.0611 4.91829 11.2797 4.13689C10.4983 3.35549 9.43848 2.9165 8.33341 2.9165C7.22835 2.9165 6.16854 3.35549 5.38714 4.13689C4.60573 4.91829 4.16675 5.9781 4.16675 7.08317C4.16674 7.67126 4.29325 8.25247 4.53769 8.78736C4.78212 9.32224 5.13877 9.79828 5.58341 10.1832C4.41686 10.7114 3.42714 11.5644 2.73256 12.6403C2.03799 13.7161 1.66797 14.9693 1.66675 16.2498C1.66675 16.4709 1.75455 16.6828 1.91083 16.8391C2.06711 16.9954 2.27907 17.0832 2.50008 17.0832C2.7211 17.0832 2.93306 16.9954 3.08934 16.8391C3.24562 16.6828 3.33341 16.4709 3.33341 16.2498C3.33341 14.9238 3.8602 13.652 4.79788 12.7143C5.73556 11.7766 7.00733 11.2498 8.33341 11.2498C9.6595 11.2498 10.9313 11.7766 11.8689 12.7143C12.8066 13.652 13.3334 14.9238 13.3334 16.2498C13.3334 16.4709 13.4212 16.6828 13.5775 16.8391C13.7338 16.9954 13.9457 17.0832 14.1667 17.0832C14.3878 17.0832 14.5997 16.9954 14.756 16.8391C14.9123 16.6828 15.0001 16.4709 15.0001 16.2498C14.9989 14.9693 14.6288 13.7161 13.9343 12.6403C13.2397 11.5644 12.25 10.7114 11.0834 10.1832V10.1832ZM8.33341 9.58317C7.83896 9.58317 7.35561 9.43655 6.94449 9.16184C6.53337 8.88714 6.21294 8.49669 6.02372 8.03988C5.8345 7.58306 5.78499 7.0804 5.88145 6.59545C5.97791 6.11049 6.21602 5.66504 6.56565 5.3154C6.91528 4.96577 7.36074 4.72767 7.84569 4.63121C8.33064 4.53474 8.83331 4.58425 9.29012 4.77347C9.74694 4.96269 10.1374 5.28312 10.4121 5.69424C10.6868 6.10537 10.8334 6.58872 10.8334 7.08317C10.8334 7.74621 10.57 8.3821 10.1012 8.85094C9.63234 9.31978 8.99646 9.58317 8.33341 9.58317Z" fill="#7B91F7"/>
</svg>
