<svg width="20" height="20" viewBox="0 0 20 20" fill="none" xmlns="http://www.w3.org/2000/svg">
<path d="M12.5001 1.66689C11.1359 1.668 9.81528 2.14716 8.76781 3.02107C7.72034 3.89497 7.01227 5.10835 6.76672 6.45022C6.04875 6.83757 5.43645 7.39472 4.98326 8.07306C4.53007 8.7514 4.24973 9.53032 4.16672 10.3419C3.54651 10.6147 3.00219 11.0347 2.58093 11.5653C2.15967 12.096 1.87418 12.7215 1.74922 13.3874C1.62425 14.0533 1.66357 14.7397 1.86377 15.387C2.06397 16.0343 2.41901 16.623 2.89812 17.1022C3.37723 17.5813 3.96596 17.9363 4.61327 18.1365C5.26058 18.3367 5.94695 18.376 6.61288 18.2511C7.27882 18.1261 7.90424 17.8406 8.43493 17.4194C8.96562 16.9981 9.38557 16.4538 9.65839 15.8336C10.4676 15.7532 11.2449 15.4766 11.923 15.0279C12.6012 14.5792 13.1597 13.9719 13.5501 13.2586C15.0092 13.0245 16.325 12.2454 17.2319 11.0786C18.1387 9.91182 18.569 8.44435 18.4357 6.97262C18.3023 5.50089 17.6154 4.13461 16.5137 3.14978C15.4119 2.16494 13.9775 1.63496 12.5001 1.66689ZM8.33339 14.5252C8.33339 14.6086 8.33339 14.6919 8.27506 14.7836C8.16742 15.2125 7.94793 15.6052 7.63899 15.9216C7.33006 16.238 6.94272 16.4668 6.5165 16.5846C6.09027 16.7025 5.64042 16.7052 5.21282 16.5924C4.78522 16.4797 4.39517 16.2555 4.08248 15.9428C3.76979 15.6301 3.54563 15.2401 3.43288 14.8125C3.32012 14.3849 3.32281 13.935 3.44066 13.5088C3.55851 13.0826 3.78731 12.6952 4.10371 12.3863C4.42012 12.0773 4.81281 11.8579 5.24172 11.7502L5.47506 11.6669C5.86637 11.5938 6.26961 11.6171 6.64988 11.7349C7.03015 11.8526 7.37599 12.0613 7.65749 12.3428C7.93898 12.6243 8.14764 12.9701 8.26541 13.3504C8.38318 13.7307 8.40651 14.1339 8.33339 14.5252ZM12.5001 11.4669C12.4891 11.5204 12.4752 11.5732 12.4584 11.6252C12.4226 11.7786 12.3752 11.929 12.3167 12.0752C12.1249 12.5617 11.8212 12.9963 11.4304 13.3437C11.0395 13.6911 10.5724 13.9417 10.0667 14.0752C10.0667 13.9252 10.0667 13.7836 10.0167 13.6336C9.96672 13.4836 10.0167 13.4086 10.0167 13.3002C10.0167 13.1919 9.91672 12.9836 9.86672 12.8252C9.81672 12.6669 9.80839 12.6252 9.76672 12.5252C9.69489 12.3664 9.61132 12.2132 9.51672 12.0669C9.51672 11.9919 9.44172 11.9086 9.39172 11.8336C9.2435 11.6163 9.07617 11.4127 8.89172 11.2252L8.72506 11.0836C8.58537 10.9551 8.43786 10.8354 8.28339 10.7252C8.1926 10.6662 8.09794 10.6133 8.00006 10.5669C7.86668 10.4821 7.72744 10.4069 7.58339 10.3419C7.47576 10.2958 7.36419 10.2596 7.25006 10.2336C7.10976 10.1766 6.96476 10.132 6.81672 10.1002C6.70006 10.1002 6.57506 10.1002 6.45006 10.0502L5.94172 10.0002C6.07438 9.49545 6.32371 9.02887 6.66964 8.63807C7.01557 8.24727 7.44844 7.94316 7.93339 7.75022C8.07632 7.69054 8.22407 7.64314 8.37506 7.60856L8.54172 7.56689C8.74728 7.52366 8.95668 7.50133 9.16672 7.50022C10.0508 7.50022 10.8986 7.85141 11.5237 8.47653C12.1489 9.10166 12.5001 9.9495 12.5001 10.8336C12.4989 11.0464 12.4766 11.2585 12.4334 11.4669H12.5001ZM14.1667 11.3336C14.1667 11.1669 14.1667 11.0002 14.1667 10.8336C14.1667 9.50747 13.6399 8.23571 12.7023 7.29802C11.7646 6.36034 10.4928 5.83356 9.16672 5.83356C9.00006 5.83356 8.83339 5.83356 8.66672 5.83356C8.94141 5.21568 9.36234 4.67394 9.89318 4.2551C10.424 3.83626 11.0488 3.5529 11.7136 3.42949C12.3785 3.30608 13.0633 3.34633 13.7091 3.54675C14.3549 3.74718 14.9422 4.10176 15.4204 4.5799C15.8985 5.05803 16.2531 5.64534 16.4535 6.29114C16.654 6.93693 16.6942 7.62181 16.5708 8.28663C16.4474 8.95145 16.164 9.57626 15.7452 10.1071C15.3263 10.6379 14.7846 11.0589 14.1667 11.3336Z" fill="#00D5AA"/>
</svg>
