<svg width="18" height="18" viewBox="0 0 18 18" fill="none" xmlns="http://www.w3.org/2000/svg">
<path d="M15.7499 8.25014C15.551 8.25014 15.3602 8.32916 15.2196 8.46981C15.0789 8.61046 14.9999 8.80123 14.9999 9.00014V10.9426L10.2824 6.21764C10.2127 6.14734 10.1297 6.09155 10.0383 6.05347C9.94693 6.01539 9.8489 5.99579 9.74989 5.99579C9.65089 5.99579 9.55286 6.01539 9.46146 6.05347C9.37007 6.09155 9.28712 6.14734 9.21739 6.21764L6.74989 8.69264L2.78239 4.71764C2.64117 4.57641 2.44962 4.49707 2.24989 4.49707C2.05017 4.49707 1.85862 4.57641 1.71739 4.71764C1.57617 4.85887 1.49683 5.05041 1.49683 5.25014C1.49683 5.44987 1.57617 5.64141 1.71739 5.78264L6.21739 10.2826C6.28712 10.3529 6.37007 10.4087 6.46146 10.4468C6.55286 10.4849 6.65089 10.5045 6.74989 10.5045C6.8489 10.5045 6.94693 10.4849 7.03833 10.4468C7.12972 10.4087 7.21267 10.3529 7.2824 10.2826L9.74989 7.80764L13.9424 12.0001H11.9999C11.801 12.0001 11.6102 12.0792 11.4696 12.2198C11.3289 12.3605 11.2499 12.5512 11.2499 12.7501C11.2499 12.9491 11.3289 13.1398 11.4696 13.2805C11.6102 13.4211 11.801 13.5001 11.9999 13.5001H15.7499C15.8479 13.499 15.9447 13.4786 16.0349 13.4401C16.2182 13.364 16.3638 13.2184 16.4399 13.0351C16.4783 12.945 16.4987 12.8481 16.4999 12.7501V9.00014C16.4999 8.80123 16.4209 8.61046 16.2802 8.46981C16.1396 8.32916 15.9488 8.25014 15.7499 8.25014Z" fill="#FF8686"/>
</svg>
