<svg width="16" height="17" viewBox="0 0 16 17" fill="none" xmlns="http://www.w3.org/2000/svg">
<path d="M10.0002 0C11.8405 0.000424251 13.3325 1.49203 13.3333 3.33203V6.46289C13.3421 6.47573 13.351 6.49094 13.3625 6.50684C13.4409 6.61454 13.5237 6.71542 13.6702 6.89746C13.7957 7.0535 13.9747 7.27896 14.137 7.53125C14.4716 8.05168 14.666 8.67231 14.6663 9.33203V10.667C14.6659 12.507 13.1745 14 11.3333 14H9.00024V16C9.00007 16.552 8.55227 16.9998 8.00024 17C7.44807 17 7.00042 16.5521 7.00024 16V14H4.66626C2.82598 13.9996 1.33365 12.5074 1.33325 10.667V9.33203C1.33351 8.67192 1.52764 8.05075 1.86255 7.53027L1.98657 7.34766C2.11131 7.17066 2.23522 7.01446 2.32935 6.89746C2.47573 6.71551 2.55966 6.61444 2.63794 6.50684C2.64917 6.49138 2.65761 6.47641 2.66626 6.46387V3.33203C2.66699 1.49047 4.16095 1.28804e-07 6.00024 0H10.0002ZM6.00024 2C5.26398 2 4.66645 2.59679 4.66626 3.33301V6.66699L4.65845 6.80371C4.57736 7.47737 3.91763 8.03291 3.54419 8.61328C3.41074 8.82087 3.33332 9.06791 3.33325 9.33301V10.667C3.33341 11.4031 3.93013 11.9998 4.66626 12H11.3333C12.0695 12 12.6661 11.4032 12.6663 10.667V9.33301C12.6662 9.13391 12.6224 8.94505 12.5442 8.77539L12.4553 8.61328C12.0819 8.0325 11.4218 7.47681 11.3411 6.80273L11.3333 6.66699V3.33301C11.3331 2.5969 10.7364 2.00017 10.0002 2H6.00024Z" fill="#627D98"/>
</svg>
