<svg width="24" height="24" viewBox="0 0 24 24" fill="none" xmlns="http://www.w3.org/2000/svg">
<path d="M20 11C20.5523 11 21 11.4477 21 12V13C21 16.866 17.866 20 14 20H13V22H15C15.5523 22 16 22.4477 16 23C16 23.5523 15.5523 24 15 24H9C8.44772 24 8.00001 23.5523 8 23C8 22.4477 8.44772 22 9 22H11V20H10C6.13402 20 3.00001 16.866 3 13V12C3 11.4477 3.44772 11 4 11C4.55228 11 5 11.4477 5 12V13C5.00001 15.7614 7.23858 18 10 18H14L14.2568 17.9932C16.8989 17.8595 19 15.6753 19 13V12C19 11.4477 19.4477 11 20 11ZM12 0C14.7614 1.54622e-06 17 2.23858 17 5V11C17 13.7614 14.7614 16 12 16C9.23858 16 7.00001 13.7614 7 11V5C7 2.23858 9.23858 0 12 0ZM12 2C10.3431 2 9 3.34315 9 5V11C9.00001 12.6568 10.3432 14 12 14C13.6568 14 15 12.6568 15 11V5C15 3.34315 13.6569 2 12 2Z" fill="#627D98"/>
</svg>
