<svg width="20" height="20" viewBox="0 0 20 20" fill="none" xmlns="http://www.w3.org/2000/svg">
<path d="M4.16659 9.99984C3.94557 9.99984 3.73361 10.0876 3.57733 10.2439C3.42105 10.4002 3.33325 10.6122 3.33325 10.8332V17.4998C3.33325 17.7208 3.42105 17.9328 3.57733 18.0891C3.73361 18.2454 3.94557 18.3332 4.16659 18.3332C4.3876 18.3332 4.59956 18.2454 4.75584 18.0891C4.91212 17.9328 4.99992 17.7208 4.99992 17.4998V10.8332C4.99992 10.6122 4.91212 10.4002 4.75584 10.2439C4.59956 10.0876 4.3876 9.99984 4.16659 9.99984ZM8.33325 1.6665C8.11224 1.6665 7.90028 1.7543 7.744 1.91058C7.58772 2.06686 7.49992 2.27882 7.49992 2.49984V17.4998C7.49992 17.7208 7.58772 17.9328 7.744 18.0891C7.90028 18.2454 8.11224 18.3332 8.33325 18.3332C8.55427 18.3332 8.76623 18.2454 8.92251 18.0891C9.07879 17.9328 9.16659 17.7208 9.16659 17.4998V2.49984C9.16659 2.27882 9.07879 2.06686 8.92251 1.91058C8.76623 1.7543 8.55427 1.6665 8.33325 1.6665ZM16.6666 13.3332C16.4456 13.3332 16.2336 13.421 16.0773 13.5772C15.921 13.7335 15.8333 13.9455 15.8333 14.1665V17.4998C15.8333 17.7208 15.921 17.9328 16.0773 18.0891C16.2336 18.2454 16.4456 18.3332 16.6666 18.3332C16.8876 18.3332 17.0996 18.2454 17.2558 18.0891C17.4121 17.9328 17.4999 17.7208 17.4999 17.4998V14.1665C17.4999 13.9455 17.4121 13.7335 17.2558 13.5772C17.0996 13.421 16.8876 13.3332 16.6666 13.3332ZM12.4999 6.6665C12.2789 6.6665 12.0669 6.7543 11.9107 6.91058C11.7544 7.06686 11.6666 7.27882 11.6666 7.49984V17.4998C11.6666 17.7208 11.7544 17.9328 11.9107 18.0891C12.0669 18.2454 12.2789 18.3332 12.4999 18.3332C12.7209 18.3332 12.9329 18.2454 13.0892 18.0891C13.2455 17.9328 13.3333 17.7208 13.3333 17.4998V7.49984C13.3333 7.27882 13.2455 7.06686 13.0892 6.91058C12.9329 6.7543 12.7209 6.6665 12.4999 6.6665Z" fill="#1A1A21"/>
</svg>
