<svg width="20" height="20" viewBox="0 0 20 20" fill="none" xmlns="http://www.w3.org/2000/svg">
<path d="M9.99989 1.6665C8.90554 1.6665 7.82191 1.88205 6.81086 2.30084C5.79981 2.71963 4.88115 3.33346 4.10733 4.10728C2.54453 5.67008 1.66656 7.7897 1.66656 9.99984C1.65927 11.9241 2.32555 13.7903 3.54989 15.2748L1.88322 16.9415C1.76759 17.0587 1.68926 17.2075 1.65812 17.3692C1.62697 17.5308 1.64441 17.6981 1.70822 17.8498C1.77744 17.9998 1.88964 18.1258 2.03059 18.2118C2.17155 18.2979 2.33489 18.3401 2.49989 18.3332H9.99989C12.21 18.3332 14.3296 17.4552 15.8924 15.8924C17.4552 14.3296 18.3332 12.21 18.3332 9.99984C18.3332 7.7897 17.4552 5.67008 15.8924 4.10728C14.3296 2.54448 12.21 1.6665 9.99989 1.6665ZM9.99989 16.6665H4.50822L5.28322 15.8915C5.43843 15.7354 5.52555 15.5242 5.52555 15.304C5.52555 15.0838 5.43843 14.8726 5.28322 14.7165C4.19204 13.6265 3.51253 12.192 3.36046 10.6572C3.20839 9.12238 3.59317 7.58234 4.44924 6.29944C5.30531 5.01654 6.57971 4.07014 8.05532 3.62148C9.53092 3.17283 11.1164 3.24967 12.5417 3.83893C13.967 4.42819 15.1439 5.4934 15.8719 6.85308C16.5999 8.21276 16.8339 9.78279 16.5342 11.2957C16.2344 12.8086 15.4193 14.1707 14.2278 15.15C13.0364 16.1294 11.5422 16.6653 9.99989 16.6665Z" fill="#1A1A21"/>
</svg>
