<svg width="20" height="20" viewBox="0 0 20 20" fill="none" xmlns="http://www.w3.org/2000/svg">
<path d="M13.3333 1.6665L17.5 5.83317V17.494C17.5 17.9573 17.1292 18.3332 16.6725 18.3332H3.3275C2.87083 18.3332 2.5 17.954 2.5 17.5065V2.49317C2.5 2.0365 2.8725 1.6665 3.3325 1.6665H13.3333ZM12.5 3.33317H4.16667V16.6665H15.8333V6.6665H12.5V3.33317ZM10.8333 8.33317V12.4998H10V8.33317H10.8333ZM9.16667 8.33317V9.1665H7.5C7.04 9.1665 6.66667 9.53984 6.66667 9.99984V10.8332C6.66667 11.2932 7.04 11.6665 7.5 11.6665H8.33333V10.8332H7.5V9.99984H9.16667V11.6665C9.16667 12.1265 8.79333 12.4998 8.33333 12.4998H7.5C6.57917 12.4998 5.83333 11.754 5.83333 10.8332V9.99984C5.83333 9.079 6.57917 8.33317 7.5 8.33317H9.16667ZM14.1667 8.33317V9.1665H12.5V9.99984H14.1667V10.8332H12.5V12.4998H11.6667V8.33317H14.1667Z" fill="#A3A3A6"/>
</svg>
