<svg width="20" height="20" viewBox="0 0 20 20" fill="none" xmlns="http://www.w3.org/2000/svg">
<path d="M17.9416 5.95833C17.8149 5.88519 17.6712 5.84669 17.525 5.84669C17.3787 5.84669 17.235 5.88519 17.1083 5.95833L14.1666 7.40833C14.1429 6.76131 13.869 6.14873 13.4028 5.69953C12.9365 5.25034 12.3141 4.99957 11.6666 5H4.16663C3.50358 5 2.8677 5.26339 2.39886 5.73223C1.93002 6.20107 1.66663 6.83696 1.66663 7.5V12.5C1.66663 13.163 1.93002 13.7989 2.39886 14.2678C2.8677 14.7366 3.50358 15 4.16663 15H11.6666C12.3141 15.0004 12.9365 14.7497 13.4028 14.3005C13.869 13.8513 14.1429 13.2387 14.1666 12.5917L17.1333 14.075C17.2469 14.1332 17.3723 14.1646 17.5 14.1667C17.656 14.1672 17.809 14.1239 17.9416 14.0417C18.0617 13.9666 18.1607 13.8622 18.2292 13.7382C18.2978 13.6143 18.3336 13.475 18.3333 13.3333V6.66667C18.3336 6.52505 18.2978 6.38569 18.2292 6.26176C18.1607 6.13782 18.0617 6.03339 17.9416 5.95833ZM12.5 12.5C12.5 12.721 12.4122 12.933 12.2559 13.0893C12.0996 13.2455 11.8876 13.3333 11.6666 13.3333H4.16663C3.94561 13.3333 3.73365 13.2455 3.57737 13.0893C3.42109 12.933 3.33329 12.721 3.33329 12.5V7.5C3.33329 7.27899 3.42109 7.06703 3.57737 6.91075C3.73365 6.75446 3.94561 6.66667 4.16663 6.66667H11.6666C11.8876 6.66667 12.0996 6.75446 12.2559 6.91075C12.4122 7.06703 12.5 7.27899 12.5 7.5V12.5ZM16.6666 11.9833L14.1666 10.7333V9.26667L16.6666 8.01667V11.9833Z" fill="#A3A3A6"/>
</svg>
