<svg width="20" height="20" viewBox="0 0 20 20" fill="none" xmlns="http://www.w3.org/2000/svg">
<path d="M15.8333 3.3335H4.16663C3.50358 3.3335 2.8677 3.59689 2.39886 4.06573C1.93002 4.53457 1.66663 5.17045 1.66663 5.8335V14.1668C1.66663 14.8299 1.93002 15.4658 2.39886 15.9346C2.8677 16.4034 3.50358 16.6668 4.16663 16.6668H15.8333C16.4963 16.6668 17.1322 16.4034 17.6011 15.9346C18.0699 15.4658 18.3333 14.8299 18.3333 14.1668V5.8335C18.3333 5.17045 18.0699 4.53457 17.6011 4.06573C17.1322 3.59689 16.4963 3.3335 15.8333 3.3335ZM4.16663 15.0002C3.94561 15.0002 3.73365 14.9124 3.57737 14.7561C3.42109 14.5998 3.33329 14.3878 3.33329 14.1668V12.1502L6.08329 9.4085C6.23907 9.25581 6.4485 9.17028 6.66663 9.17028C6.88475 9.17028 7.09418 9.25581 7.24996 9.4085L12.8416 15.0002H4.16663ZM16.6666 14.1668C16.6666 14.3878 16.5788 14.5998 16.4225 14.7561C16.2663 14.9124 16.0543 15.0002 15.8333 15.0002H15.1916L12.0166 11.8085L12.75 11.0752C12.9057 10.9225 13.1152 10.8369 13.3333 10.8369C13.5514 10.8369 13.7609 10.9225 13.9166 11.0752L16.6666 13.8168V14.1668ZM16.6666 11.4668L15.1 9.9085C14.625 9.45219 13.9919 9.19735 13.3333 9.19735C12.6747 9.19735 12.0416 9.45219 11.5666 9.9085L10.8333 10.6418L8.43329 8.24183C7.95834 7.78552 7.32526 7.53068 6.66663 7.53068C6.008 7.53068 5.37491 7.78552 4.89996 8.24183L3.33329 9.80016V5.8335C3.33329 5.61248 3.42109 5.40052 3.57737 5.24424C3.73365 5.08796 3.94561 5.00016 4.16663 5.00016H15.8333C16.0543 5.00016 16.2663 5.08796 16.4225 5.24424C16.5788 5.40052 16.6666 5.61248 16.6666 5.8335V11.4668Z" fill="#A3A3A6"/>
</svg>
