<svg width="20" height="20" viewBox="0 0 20 20" fill="none" xmlns="http://www.w3.org/2000/svg">
<path d="M14.1667 5H5.83333C5.61232 5 5.40036 5.0878 5.24408 5.24408C5.0878 5.40036 5 5.61232 5 5.83333C5 6.05435 5.0878 6.26631 5.24408 6.42259C5.40036 6.57887 5.61232 6.66667 5.83333 6.66667H9.16667V14.1667C9.16667 14.3877 9.25446 14.5996 9.41074 14.7559C9.56702 14.9122 9.77899 15 10 15C10.221 15 10.433 14.9122 10.5893 14.7559C10.7455 14.5996 10.8333 14.3877 10.8333 14.1667V6.66667H14.1667C14.3877 6.66667 14.5996 6.57887 14.7559 6.42259C14.9122 6.26631 15 6.05435 15 5.83333C15 5.61232 14.9122 5.40036 14.7559 5.24408C14.5996 5.0878 14.3877 5 14.1667 5Z" fill="#A3A3A6"/>
</svg>
